<svg width="136" height="136" viewBox="0 0 136 136" fill="none" xmlns="http://www.w3.org/2000/svg">
<path d="M123.609 79.8037L131.679 80.8243L125.469 75.9519L125.567 75.2242L132.759 72.0736L124.743 71.0352L124.938 69.5176L136.01 70.9464L135.842 72.2422L127.462 75.8632L134.655 81.4278L134.487 82.7235L123.414 81.3124L123.609 79.8037Z" fill="black"/>
<path d="M119.339 92.3528L123.414 91.3943C123.502 91.1103 123.582 90.8885 123.644 90.7287L124.672 88.1638L121.518 86.8947L122.112 85.4126L132.467 89.575L130.846 93.6219C130.306 94.9621 129.561 95.8939 128.614 96.4087C127.666 96.9234 126.629 96.9501 125.504 96.4974C124.707 96.1779 124.105 95.7076 123.697 95.0863C123.29 94.4651 123.113 93.7373 123.148 92.9031L118.684 93.9681L119.339 92.3528ZM124.663 93.5864C124.867 94.2432 125.345 94.7224 126.098 95.0242C126.851 95.3259 127.524 95.3082 128.118 94.9798C128.711 94.6514 129.198 94.0124 129.579 93.0717L130.589 90.5512L125.93 88.6786L124.92 91.1991C124.548 92.131 124.459 92.9297 124.663 93.5864Z" fill="black"/>
<path d="M126.337 102.763L125.504 104.13L115.973 98.3079L116.805 96.9412L126.337 102.763Z" fill="black"/>
<path d="M119.558 110.067L122.003 107.121L123.066 108.008L117.157 115.117L116.094 114.23L118.539 111.283L111.027 105.017L112.037 103.802L119.558 110.067Z" fill="black"/>
<path d="M110.894 118.933L113.844 116.493L114.73 117.567L107.616 123.46L106.731 122.386L109.68 119.945L103.453 112.401L104.667 111.39L110.894 118.933Z" fill="black"/>
<path d="M103.738 125.874L102.374 126.699L96.5898 117.132L97.954 116.306L103.738 125.874Z" fill="black"/>
<path d="M91.1683 125.341L92.2933 122.652L91.2214 119.963L92.7008 119.368L96.8375 129.752L95.3582 130.347L93.0462 124.543L89.7244 132.592L88.0325 133.267L90.6014 126.823L83.6211 122.989L85.3573 122.297L91.1683 125.341Z" fill="black"/>
<path d="M81.4243 123.513C81.6812 123.664 81.8407 123.903 81.9115 124.214C81.9824 124.516 81.9381 124.791 81.7698 125.039C81.6103 125.288 81.38 125.448 81.0966 125.51C80.8042 125.581 80.5385 125.536 80.2993 125.385C80.0602 125.235 79.9007 125.004 79.8298 124.693C79.759 124.383 79.8033 124.099 79.9539 123.85C80.1044 123.602 80.3259 123.442 80.6094 123.38C80.9017 123.309 81.1763 123.353 81.4243 123.513Z" fill="black"/>
<path d="M68.6793 127.764L74.5965 127.4L75.6507 124.534L77.2894 124.436L72.9223 135.902L71.3456 136L65.6055 125.146L67.2797 125.04L68.6793 127.764ZM69.3171 129.007L72.0542 134.332L74.1271 128.714L69.3171 129.007Z" fill="black"/>
<path d="M55.5746 123.646L57.4082 127.418C57.7094 127.445 57.9397 127.471 58.108 127.498L60.8275 127.933L61.3678 124.569L62.9446 124.826L61.173 135.867L56.8767 135.175C55.4506 134.944 54.3787 134.42 53.6701 133.604C52.9614 132.787 52.7045 131.784 52.8905 130.586C53.0234 129.734 53.3512 129.042 53.8738 128.51C54.3876 127.977 55.0608 127.64 55.8758 127.489L53.8561 123.362L55.5746 123.646ZM55.548 129.131C54.9545 129.477 54.5913 130.054 54.4673 130.853C54.3433 131.651 54.5027 132.308 54.9634 132.814C55.424 133.329 56.1504 133.657 57.1425 133.817L59.8177 134.252L60.6149 129.282L57.9397 128.847C56.9387 128.687 56.1415 128.776 55.548 129.131Z" fill="black"/>
<path d="M48.5767 122.19C49.2234 122.989 49.622 123.877 49.7814 124.88C49.932 125.874 49.808 126.876 49.4005 127.888C48.9931 128.9 48.3996 129.708 47.6023 130.32C46.8051 130.932 45.9016 131.305 44.874 131.429C43.8553 131.554 42.8189 131.403 41.7825 130.986C40.9764 130.657 40.2855 130.231 39.7274 129.69C39.1693 129.148 38.753 128.518 38.4961 127.791L39.8337 127.24C40.2855 128.376 41.0915 129.175 42.252 129.645C43.0226 129.956 43.7844 130.063 44.5462 129.965C45.3081 129.867 45.9813 129.583 46.5748 129.122C47.1683 128.651 47.6112 128.048 47.9124 127.294C48.2135 126.539 48.311 125.794 48.2047 125.048C48.0984 124.303 47.8061 123.628 47.3189 123.034C46.8405 122.439 46.2116 121.986 45.4409 121.676C44.2894 121.214 43.1467 121.232 42.0305 121.747L41.4459 120.424C42.1368 120.078 42.872 119.91 43.6604 119.901C44.4488 119.892 45.246 120.052 46.0521 120.38C47.0797 120.788 47.9301 121.401 48.5767 122.19Z" fill="black"/>
<path d="M24.9258 120.895L31.3657 111.762L32.6679 112.685L29.7978 116.759L35.033 120.46L37.9031 116.386L39.2052 117.309L32.7653 126.442L31.4631 125.519L34.2358 121.587L29.0006 117.886L26.2368 121.818L24.9258 120.895Z" fill="black"/>
<path d="M20.2578 116.466L19.1328 115.33L27.0698 107.467L28.1948 108.603L20.2578 116.466Z" fill="black"/>
<path d="M14.8296 108.142L17.0973 111.23L15.9811 112.055L10.5156 104.6L11.6318 103.775L13.8995 106.864L21.7744 101.059L22.7134 102.337L14.8296 108.142Z" fill="black"/>
<path d="M13.4472 88.7497L14.7051 88.155L18.1421 95.5035L8.03485 100.252L4.69531 93.1073L5.95318 92.5126L8.6195 98.2104L11.7199 96.7549L9.34587 91.6784L10.5772 91.1015L12.9512 96.178L16.211 94.6426L13.4472 88.7497Z" fill="black"/>
<path d="M12.5504 83.0077C12.2669 83.9928 11.762 84.8359 11.0356 85.5282C10.3092 86.2204 9.41456 86.6908 8.35157 86.9304C7.28859 87.17 6.28761 87.1434 5.33093 86.8328C4.36538 86.5221 3.54157 85.9897 2.85949 85.2175C2.17741 84.4454 1.70792 83.5135 1.45989 82.4219C1.26501 81.5699 1.22958 80.7623 1.35359 79.9902C1.48647 79.2181 1.76993 78.5169 2.21284 77.8868L3.42641 78.6767C2.75319 79.6973 2.55831 80.8155 2.83291 82.0403C3.01893 82.8479 3.3644 83.5402 3.87818 84.1082C4.39196 84.6762 5.00317 85.0755 5.72954 85.2974C6.45592 85.5193 7.20887 85.5459 7.98839 85.3595C8.77677 85.182 9.44999 84.8359 9.9992 84.3212C10.5573 83.8064 10.9382 83.1763 11.1508 82.4397C11.3634 81.703 11.3811 80.9309 11.1951 80.1144C10.9205 78.8986 10.2472 77.9756 9.1931 77.3454L9.93719 76.1118C10.6104 76.4846 11.1773 76.9904 11.6291 77.6383C12.0809 78.2862 12.4086 79.0317 12.5947 79.8837C12.8515 80.9753 12.8338 82.0225 12.5504 83.0077Z" fill="black"/>
<path d="M1.51475 70.547L1.61219 74.381L0.221455 74.4165L0 65.1688L1.39074 65.1333L1.48818 68.9673L11.2588 68.7277L11.2942 70.3074L1.51475 70.547Z" fill="black"/>
<path d="M10.4361 60.9798C9.45284 61.6454 8.1684 61.8318 6.6005 61.5389L0.355469 60.3852L0.647789 58.8143L6.82196 59.9503C9.17824 60.3852 10.5424 59.5687 10.9233 57.5008C11.1093 56.498 10.9587 55.6726 10.4804 55.0336C10.0021 54.3946 9.16052 53.9597 7.97352 53.7467L1.7905 52.6107L2.07396 51.0842L8.31899 52.238C9.89575 52.5308 11.0296 53.161 11.7117 54.1283C12.3938 55.0957 12.5975 56.3205 12.3318 57.7848C12.066 59.2492 11.4194 60.3231 10.4361 60.9798Z" fill="black"/>
<path d="M17.3542 42.2272L13.244 43.0525C13.1466 43.3365 13.058 43.5495 12.9871 43.7093L11.8798 46.2387L14.9891 47.6054L14.3513 49.0786L4.12891 44.579L5.87397 40.5853C6.45861 39.2629 7.22928 38.3577 8.19482 37.8696C9.16037 37.3903 10.1968 37.3903 11.3041 37.8784C12.0924 38.2246 12.6771 38.7127 13.0668 39.3517C13.4477 39.9818 13.6072 40.7184 13.5452 41.5527L18.0363 40.6297L17.3542 42.2272ZM12.0659 40.8249C11.8798 40.1593 11.4192 39.6712 10.6751 39.3428C9.93989 39.0144 9.25781 39.0144 8.65545 39.3251C8.04423 39.6357 7.53932 40.2569 7.13184 41.1888L6.04228 43.6738L10.6397 45.6973L11.7292 43.2123C12.1367 42.2893 12.243 41.4906 12.0659 40.8249Z" fill="black"/>
<path d="M23.5188 30.3523L24.6438 31.1688L19.8869 37.7363L10.8516 31.1688L15.4755 24.7788L16.6005 25.5953L12.9067 30.6895L15.6793 32.7042L18.9657 28.169L20.0641 28.9678L16.7777 33.5029L19.692 35.624L23.5188 30.3523Z" fill="black"/>
<path d="M37.8524 19.9686L35.7795 19.6579C35.5581 21.0158 34.8406 22.1429 33.6359 23.0393C33.0424 23.483 32.4223 23.7848 31.8022 23.9445C31.1821 24.1043 30.5975 24.1043 30.066 23.9445C29.5345 23.7937 29.1005 23.483 28.7638 23.0304C28.3564 22.4802 28.1703 21.8767 28.1969 21.2022C28.2235 20.5277 28.4538 19.6846 28.9056 18.6551C28.2235 18.5486 27.6831 18.4066 27.2845 18.2113C26.8859 18.0161 26.567 17.7498 26.3101 17.4037C25.8584 16.8002 25.7166 16.1434 25.8849 15.4512C26.0532 14.759 26.505 14.1377 27.2402 13.5875C27.9223 13.0816 28.5867 12.842 29.2333 12.8775C29.88 12.913 30.4203 13.2236 30.8544 13.8005C31.191 14.2531 31.3416 14.7678 31.315 15.3447C31.2884 15.9216 31.0758 16.6582 30.6861 17.5634L34.5305 18.1226C34.4242 17.4481 34.2116 16.7647 33.875 16.0813L35.0975 15.6731C35.5227 16.5783 35.7707 17.4481 35.8327 18.3089L37.9321 18.6196L37.8524 19.9686ZM27.1871 15.4867C27.1074 15.8595 27.1871 16.2056 27.4351 16.5251C27.6034 16.7558 27.8337 16.9333 28.1172 17.0576C28.4007 17.1818 28.8524 17.2883 29.4902 17.3948C29.8357 16.6227 30.0306 16.0369 30.0749 15.6287C30.128 15.2205 30.0394 14.8743 29.8357 14.5903C29.6142 14.2886 29.3308 14.1288 28.9942 14.1022C28.6487 14.0756 28.2944 14.2087 27.9135 14.4838C27.4971 14.7856 27.258 15.114 27.1871 15.4867ZM34.5128 19.4804L30.0837 18.8326C29.7205 19.6313 29.5257 20.2703 29.4991 20.7407C29.4725 21.2111 29.5965 21.6371 29.8711 22.0098C30.19 22.4358 30.6329 22.6488 31.1999 22.6399C31.7668 22.6311 32.3514 22.4003 32.9449 21.9566C33.8396 21.2909 34.3622 20.4656 34.5128 19.4804Z" fill="black"/>
<path d="M42.6445 4.81034L47.1268 3.38147C48.2518 3.02647 49.3236 2.92885 50.3335 3.09747C51.3433 3.26609 52.2202 3.67434 52.9555 4.33109C53.6907 4.98784 54.2311 5.83096 54.5588 6.87821C54.8954 7.92545 54.9486 8.92832 54.7183 9.88682C54.4968 10.8453 54.0185 11.6884 53.2921 12.4162C52.5657 13.1439 51.6356 13.6853 50.5106 14.0403L46.0284 15.4692L42.6445 4.81034ZM50.0057 12.7357C50.8649 12.4606 51.5736 12.0523 52.114 11.5109C52.6543 10.9696 53.0175 10.3394 53.1769 9.62057C53.3364 8.9017 53.2921 8.14733 53.0441 7.35745C52.796 6.56758 52.3974 5.92859 51.8482 5.43159C51.299 4.93459 50.6523 4.63284 49.8905 4.50859C49.1287 4.38434 48.3226 4.45534 47.4634 4.73046L44.5933 5.64459L47.1445 13.6498L50.0057 12.7357Z" fill="black"/>
<path d="M67.6249 9.74471L67.74 11.1292L59.6702 11.786L58.7578 0.638998L66.615 0L66.7302 1.38449L60.4674 1.89037L60.742 5.3161L66.3227 4.86348L66.429 6.21248L60.8483 6.6651L61.1407 10.2595L67.6249 9.74471Z" fill="black"/>
<path d="M72.2292 11.1381C71.4851 10.792 70.9093 10.3838 70.5195 9.91339L71.2548 8.74189C71.6357 9.16789 72.1406 9.54951 72.7695 9.86014C73.3984 10.1796 74.0628 10.3749 74.7626 10.4548C75.6839 10.5613 76.3837 10.4903 76.8797 10.2329C77.3758 9.97551 77.6504 9.58501 77.7035 9.07026C77.7478 8.68864 77.6592 8.36914 77.4378 8.09402C77.2163 7.82777 76.9329 7.60589 76.5874 7.43727C76.2419 7.26864 75.737 7.06452 75.0904 6.8249C74.2754 6.52315 73.6288 6.24802 73.1416 5.98177C72.6544 5.7244 72.2469 5.36053 71.9368 4.89903C71.6179 4.43753 71.5028 3.85178 71.5914 3.14179C71.6622 2.54716 71.8748 2.03241 72.2469 1.59754C72.6101 1.15379 73.1327 0.834294 73.7971 0.621294C74.4614 0.408295 75.2675 0.36392 76.2065 0.47042C76.862 0.550295 77.4998 0.710044 78.111 0.949668C78.7222 1.18929 79.236 1.49992 79.6523 1.87266L78.9791 3.07966C78.5451 2.72466 78.0756 2.44954 77.5707 2.22766C77.0569 2.01466 76.552 1.87266 76.047 1.81054C75.1524 1.70404 74.4614 1.79279 73.9742 2.06791C73.487 2.34304 73.2124 2.74241 73.1504 3.25716C73.1061 3.63878 73.1947 3.95828 73.425 4.23341C73.6465 4.49965 73.9388 4.72153 74.302 4.89903C74.6652 5.07653 75.1524 5.27178 75.7813 5.50253C76.5963 5.80427 77.2429 6.0794 77.7212 6.34565C78.2084 6.60302 78.6071 6.9669 78.9171 7.41952C79.2271 7.87214 79.3512 8.44902 79.2714 9.15014C79.2006 9.73589 78.9791 10.2418 78.6071 10.6855C78.235 11.1293 77.7124 11.4576 77.0303 11.6618C76.3482 11.8659 75.5421 11.9103 74.6032 11.8038C73.7616 11.715 72.9733 11.4931 72.2292 11.1381Z" fill="black"/>
<path d="M85.2409 2.34302L86.7823 2.76902L83.8148 13.5521L82.2734 13.1261L85.2409 2.34302Z" fill="black"/>
<path d="M97.5126 13.0018L98.8945 13.6586L97.0342 17.599C96.3344 17.7765 95.6081 17.8209 94.8374 17.7233C94.0667 17.6257 93.3227 17.4127 92.6051 17.0754C91.5865 16.5962 90.7715 15.9306 90.1691 15.0963C89.5668 14.2621 89.2125 13.3391 89.115 12.3362C89.0176 11.3333 89.2036 10.3393 89.6642 9.3542C90.1248 8.36908 90.7804 7.59696 91.6219 7.02896C92.4634 6.46096 93.3935 6.15034 94.4299 6.09709C95.4575 6.04384 96.4939 6.25684 97.5214 6.74496C98.3275 7.12659 99.0008 7.60583 99.5323 8.18271C100.064 8.75958 100.445 9.41633 100.666 10.1441L99.3462 10.6144C98.9033 9.45183 98.1149 8.59983 96.9722 8.05846C96.2016 7.69458 95.4398 7.53483 94.6691 7.57921C93.8984 7.62358 93.2075 7.85433 92.5786 8.28921C91.9496 8.72408 91.4624 9.30095 91.117 10.0464C90.7715 10.7742 90.6298 11.5197 90.7006 12.2741C90.7626 13.0284 91.0284 13.7207 91.4801 14.3508C91.9319 14.9809 92.5343 15.4691 93.2961 15.8329C94.1996 16.2589 95.0943 16.4187 95.9713 16.3033L97.5126 13.0018Z" fill="black"/>
<path d="M114.367 18.2825L107.342 26.9711L106.324 26.1457L106.359 15.4425L101.115 21.9212L99.875 20.9183L106.9 12.2297L107.918 13.0551L107.883 23.7583L113.127 17.2796L114.367 18.2825Z" fill="black"/>
<path d="M122.907 28.2136L123.828 29.5182L114.722 35.9792L113.801 34.6746L122.907 28.2136Z" fill="black"/>
<path d="M131.448 43.6294L121.34 48.3775L120.782 47.1883L125.477 37.5767L117.939 41.1178L117.266 39.6712L127.373 34.9231L127.931 36.1123L123.236 45.7239L130.774 42.1828L131.448 43.6294Z" fill="black"/>
<path d="M123.635 54.3149C123.936 53.3297 124.459 52.5044 125.203 51.8299C125.947 51.1554 126.85 50.7028 127.913 50.4809C128.976 50.259 129.977 50.3123 130.934 50.6406C131.882 50.969 132.697 51.5192 133.361 52.3091C134.025 53.0901 134.477 54.0397 134.699 55.1314C134.876 55.9834 134.893 56.7999 134.752 57.5631C134.61 58.3352 134.309 59.0275 133.857 59.6398L132.661 58.8233C133.352 57.8205 133.574 56.7022 133.317 55.4686C133.148 54.6521 132.812 53.9599 132.316 53.3741C131.811 52.7884 131.208 52.3801 130.491 52.1494C129.773 51.9097 129.02 51.8742 128.232 52.0429C127.444 52.2026 126.762 52.5399 126.204 53.0457C125.637 53.5516 125.247 54.164 125.017 54.9006C124.786 55.6372 124.76 56.4094 124.928 57.217C125.185 58.4417 125.832 59.3736 126.877 60.0303L126.106 61.2551C125.442 60.8735 124.884 60.3498 124.45 59.702C124.007 59.0452 123.706 58.2908 123.528 57.4389C123.289 56.3384 123.334 55.3 123.635 54.3149Z" fill="black"/>
<path d="M124.748 64.5919C124.943 64.37 125.2 64.2547 125.519 64.2369C125.829 64.2192 126.086 64.3168 126.307 64.5209C126.529 64.725 126.644 64.9735 126.653 65.2753C126.671 65.577 126.582 65.8255 126.387 66.0385C126.192 66.2515 125.944 66.3669 125.616 66.3758C125.298 66.3935 125.032 66.2959 124.81 66.1007C124.589 65.9054 124.474 65.6569 124.465 65.3729C124.465 65.0712 124.553 64.8138 124.748 64.5919Z" fill="black"/>
</svg>
