<svg width="107" height="137" viewBox="0 0 107 137" fill="none" xmlns="http://www.w3.org/2000/svg">
<path d="M84.9898 78.1403C52.7498 81.2103 50.2998 84.6303 48.4098 136.05C48.3998 136.27 48.0698 136.27 48.0598 136.05C46.1698 84.6303 43.7098 81.2203 11.4798 78.1403C11.2698 78.1203 11.2698 77.8103 11.4798 77.7903C43.7198 74.7203 46.1698 71.3003 48.0598 19.8803C48.0698 19.6603 48.3998 19.6603 48.4098 19.8803C50.2998 71.3003 52.7598 74.7103 84.9898 77.7903C85.1998 77.8103 85.1998 78.1203 84.9898 78.1403Z" fill="white"/>
<path d="M106.061 33.2402C87.7209 34.9902 86.3209 36.9302 85.2409 66.1902C85.2409 66.3202 85.0509 66.3202 85.0409 66.1902C83.9609 36.9402 82.5709 34.9902 64.2209 33.2402C64.1009 33.2302 64.1009 33.0502 64.2209 33.0402C82.5609 31.2902 83.9609 29.3502 85.0409 0.0901758C85.0409 -0.0398242 85.2309 -0.0398242 85.2409 0.0901758C86.3209 29.3402 87.7109 31.2902 106.061 33.0402C106.181 33.0502 106.181 33.2302 106.061 33.2402Z" fill="white"/>
<path d="M25.5705 34.2102C14.3805 35.2802 13.5305 36.4602 12.8705 54.3102C12.8705 54.3902 12.7505 54.3902 12.7505 54.3102C12.0905 36.4602 11.2405 35.2802 0.0505469 34.2102C-0.0194531 34.2002 -0.0194531 34.1002 0.0505469 34.0902C11.2405 33.0202 12.0905 31.8402 12.7505 13.9902C12.7505 13.9102 12.8705 13.9102 12.8705 13.9902C13.5305 31.8402 14.3805 33.0202 25.5705 34.0902C25.6505 34.0902 25.6505 34.2002 25.5705 34.2102Z" fill="white"/>
</svg>
